<?xml version="1.0" encoding="utf-8"?>
<!-- Generator: Adobe Illustrator 27.2.0, SVG Export Plug-In . SVG Version: 6.00 Build 0)  -->
<svg version="1.1" id="Layer_1" xmlns="http://www.w3.org/2000/svg" xmlns:xlink="http://www.w3.org/1999/xlink" x="0px" y="0px"
	 viewBox="0 0 1440 900" style="enable-background:new 0 0 1440 900;" xml:space="preserve">
<style type="text/css">
	.st0{fill:#FFFFFF;}
</style>
<g>
	<g>
		<path d="M497.8,659.1c-2.5-1.4-5.4-2.1-8.2-2.1c-10-1.1-19,1.1-24.7,10.4c-3.9,5.7-7.2,11.8-8.6,18.6c-1.1,4.3-1.1,4.3-5.4,3.6
			c-7.2-0.7-14-1.1-21.1-0.7c-9.3,0.7-18.3,1.8-27.6,3.6c-2.1,0.4-4.3,0.7-6.4,0.7c-0.7-1.4,0-2.5,0.4-3.9
			c10-34.8,19.7-69.5,33.3-103.2c5.7-14.3,11.5-28.7,19.7-41.9c6.4-10.4,13.3-20.4,22.6-28.7c9-7.9,19-13.3,31.5-13.6
			c7.9,0,15.4,0,23.3-0.7c3.9-0.7,7.9-1.4,11.8-2.5c2.1-0.7,3.9-1.4,5.4-2.9c3.6-3.2,3.9-6.8,0.7-10.4c-2.5-2.9-5.7-5-9.3-6.4
			c-3.9-1.4-7.9-2.2-11.8-2.5c-14.3-1.4-28.3,0.4-42.6,2.2c-4.7,0.4-9,1.8-13.6,2.1c-38.3,2.5-77,4.3-115,9.3
			c-10.7,1.4-21.5,2.9-31.9,4.7c-20.1,3.9-39.8,9.3-59.1,16.1c-17.9,6.5-35.1,13.6-51.2,24c-10.8,7.2-20.8,15.4-29,25.4
			c-8.6,10-14.7,21.5-17.9,34.4c-2.5,11.8-2.1,22.9,3.2,34c4.7,9.7,11.8,18.3,20.1,25.1c11.1,9.3,23.7,15.4,37.3,19.4
			c7.9,2.5,15.8,3.9,23.7,2.9c3.2,0,5.7-0.7,8.6-2.5c2.9-1.8,3.2-4.7,1.1-7.5c-1.1-1.4-2.5-2.1-3.9-2.9c-1.8-1.1-3.9-2.1-6.1-2.9
			c-13.3-5.4-24-14.3-33.3-25.1c-7.9-9.3-10.8-20.4-9-32.6c1.4-10.8,6.1-19.7,12.5-27.9c9.3-11.8,21.1-20.4,34.4-27.2
			c16.8-9,34.8-15.4,53-20.8c29.7-8.6,59.8-13.3,90.7-16.5c5-0.4,10-0.7,14.7-1.4c2.9-0.4,6.1-0.4,9.3-0.7c-0.4,1.4-1.4,2.1-1.8,2.9
			c-5,5-10,10-14.3,15.8c-13.6,17.9-25.1,36.9-34,57.3c-13.3,31.5-23.3,63.8-32.6,96.8c-2.5,9.3-5,19-7.5,28.3
			c-0.7,2.5-2.1,4.3-4.7,5c-2.9,0.7-6.1,2.1-9,3.2c-18.3,6.8-36.2,14.7-52.7,24.7c-20.8,12.9-38.7,28.3-53,48
			c-9.7,13.6-16.5,28.3-18.3,45.2c-1.1,11.8,0.7,22.6,7.2,33c6.4,10,15.8,16.8,26.9,20.8c22.6,7.9,44.4,5.4,64.9-6.4
			c12.2-6.8,22.6-16.5,31.9-26.9c12.2-13.6,21.9-29,29.7-45.9c12.2-26.2,22.9-53,31.9-80.6c1.1-3.6,2.5-5.4,5.7-6.1
			c14.7-3.9,29-7.5,43.7-10c4.7-0.7,9.7-1.1,14.3-1.1c2.5-0.4,2.9,0.4,2.9,2.9c0,0.4,0,1.1,0,1.4c-0.4,5.7-0.7,11.8,0.7,17.6
			c1.8,5.7,5,10.4,10.4,13.3c5.7,2.9,11.8,3.9,18.3,3.2c3.6-0.7,6.8-1.4,9.3-3.9c2.9-2.5,2.9-5.7-0.4-7.5c-2.9-1.8-3.9-4.3-3.9-7.2
			c0-2.2,0-4.3,0.4-6.1c1.1-12.9,4.7-25.4,10.8-36.9c3.2-5.4,5.7-11.1,7.5-17.2C505,665.2,503.5,661.6,497.8,659.1z M315.7,750.5
			c-7.2,20.4-14,41.2-24,60.6c-5.7,10.8-11.8,21.5-19.3,31.2c-7.2,9-15.8,16.1-25.4,22.2c-1.1,0.7-2.5,1.4-3.6,1.8
			c-3.9,1.8-5,1.4-7.2-1.8c-5-6.8-6.4-14.7-5.7-22.9c0.7-15.1,6.8-28.3,16.1-40.1c15.4-19.7,35.1-34.8,57-46.9
			c2.9-1.4,6.1-3.2,9-4.7c1.1-0.7,2.1-1.4,3.2-1.1C316.5,749.4,316.1,749.8,315.7,750.5z"/>
		<path d="M699.5,497.5c-7.2-0.7-12.9,2.5-16.5,9c-3.6,6.1-7.2,11.8-10.8,17.6c-5,8.6-10.7,16.1-19,21.9
			c-6.1,4.3-12.2,8.6-18.3,13.3c-3.2,2.5-6.8,4.7-9.7,7.5c-2.9,2.9-2.5,5.4,0,7.9s5.7,3.6,9,4.3c6.4,1.1,12.5,0,18.3-2.5
			c5.7-2.2,11.1-5.4,16.5-8.2c7.9-5,15.4-10.8,23.3-15.4c4.3-2.5,8.2-5.4,11.8-8.6c8.6-7.9,15.4-17.2,16.5-29.4
			c0.7-6.4-1.8-11.5-7.5-14.7C708.9,498.2,704.6,497.1,699.5,497.5z"/>
		<path d="M1009.5,524c-9,12.2-15.8,25.1-20.4,39.4c-1.8,4.7-2.9,9.7-2.9,15.4c0,2.5,0.7,5.7,1.1,9c0.7,3.6,2.9,6.1,6.1,7.5
			c6.8,3.6,14,4.7,21.5,2.2c3.2-0.7,5.4-2.5,6.8-5c3.9-6.1,7.2-12.2,9.7-18.6c4.7-12.2,9.7-24,15-35.5c1.8-4.3,3.6-8.2,4.7-12.5
			c0.4-2.9-0.4-5-2.1-7.2c-1.4-1.1-2.9-2.2-4.3-2.9C1031.7,508.9,1018.1,512.2,1009.5,524z"/>
		<path d="M1161.8,450.5c-7.9-2.9-16.1-2.9-24.4-0.4c-3.6,1.1-6.4,3.2-9.3,5.7c-2.5,2.9-4.7,5.7-6.4,8.6
			c-4.3,7.5-8.6,15.4-12.5,23.3c-6.1,12.5-11.8,25.1-16.8,38.3c-5.7,14.7-12.2,29-17.2,44.1c-8.6,24.4-15.4,49.5-22.2,74.2
			c-4.3,14.7-7.2,29.7-11.8,44.4c-1.6,5.6-3.2,11.2-4.6,16.9c-0.8,0.9-1.5,1.9-2.2,2.9c-13.3,17.2-26.2,34.8-39.4,52
			c-4.7,6.4-10.4,12.2-16.5,17.6c-1.1,1.1-2.5,3.2-4.3,2.5c-1.8-1.1-1.1-3.2-1.4-5c-0.7-14.7,2.1-28.7,6.1-42.6
			c3.9-13.3,9.3-26.2,12.9-39.8c1.4-5.7,3.6-11.1,5.4-16.1c4.3-10,8.2-20.1,12.2-30.5c1.8-4.7,3.6-9.3,4.3-14.3
			c1.1-6.8-0.7-11.1-7.2-14c-11.5-5.4-22.9-4.3-33.7,2.2c-2.2,1.4-3.9,3.2-5.7,5.4c-8.2,12.2-15.4,25.1-20.8,38.7
			c-4.1,10.5-7.4,21.6-10.6,32.5c-3,1.4-5.8,3.3-8.4,5.5c-20.8,15.4-41.2,31.2-62,46.6c-9.7,6.8-19.7,12.9-30.5,18.3
			c-9.7,4.7-20.1,7.9-31.2,7.5c-3.9-0.4-6.4-1.8-8.6-5c-2.5-3.9-3.9-8.2-4.7-12.5c-1.8-9.7-0.7-19.3,1.1-29
			c5.4-24.7,16.1-46.9,31.2-67c6.8-9,15.4-16.1,25.1-22.2c3.9-2.5,4.7-2.5,5.7,2.5c2.5,11.5,1.1,22.2-6.5,31.9
			c-1.8,2.1-3.6,3.9-4.7,6.1c-2.2,4.3-1.4,7.9,2.5,10.8c1.4,1.1,2.9,2.1,4.7,2.5c13.6,4.3,26.5,2.5,36.9-7.5s15.8-22.6,15.8-37.3
			c0-7.2-1.8-13.3-5.4-19c-6.4-9.3-15-15.1-25.8-17.9c-11.8-2.9-23.3-2.5-35.1-0.7c-21.1,3.2-39.4,12.2-54.8,26.5
			c-18,16.7-31,36.8-39.2,59.5c-0.2,0.2-0.4,0.5-0.6,0.7c-11.8,15.4-23.7,31.2-35.5,46.6c-6.4,9-13.3,17.9-21.5,25.4
			c-1.4,1.4-2.9,2.9-5,3.9c-1.4,1.1-2.2,0.7-2.5-1.1c-0.4-2.1-0.7-4.3-0.7-6.1c-0.4-13.6,2.5-26.9,6.4-39.8
			c3.2-12.2,8.2-23.3,11.5-35.5c1.4-5,2.5-10,4.7-15.1c3.9-10,7.9-20.1,11.5-30.1c1.8-4.3,3.6-9,5.4-13.6c1.1-2.9,1.8-6.1,1.8-9.7
			c0-3.9-1.4-7.2-5-9.7c-3.2-2.1-6.8-3.6-11.1-3.9c-8.6-1.1-17.2-0.4-24.7,4.7c-3.2,2.2-5.4,5-7.5,8.2c-1.1,1.4-2.2,3.2-3.2,5
			c-1.4,2.1-1.8,2.5-3.6,0.4c-0.7-0.7-1.1-1.4-1.8-2.2c-6.1-7.2-14-11.1-23.3-12.9c-10.8-1.8-21.9-2.1-33-0.7
			c-14,2.5-26.9,7.5-38,16.8c-7.5,6.4-14,14-20.1,21.9c-6.4,8.2-12.2,16.8-16.5,26.5c-8.2,19.4-14.7,39.4-16.1,60.6
			c-0.7,8.2-0.4,16.5,2.1,24.4c4.3,13.3,11.8,24,25.8,28.7c8.2,2.9,16.5,3.2,24.7,2.1c9-1.1,16.8-4.7,23.7-10.4
			c4.3-3.6,8.2-7.9,11.5-12.2c7.2-10,14-19.7,21.1-29.7c3.2-4.7,6.4-9.7,9.7-14.3c0.4,0,0.7,0,0.7,0.4c-0.4,4.3-0.4,9-0.7,13.6
			c-0.7,8.6-0.7,17.6,1.8,25.8c3.9,13.3,12.2,22.2,25.4,25.8c15.1,3.9,28.7,0.4,39.8-10.4c6.1-5.7,10.8-12.9,15.8-19.7
			c6.7-8.9,13.5-17.6,20.2-26.5c0.2,7.5,1.5,15,3.9,22.6c6.1,18.3,17.9,30.1,36.6,34.8c6.8,1.8,14,2.5,20.8,2.2c3.6,0,6.8,0.4,10,0
			c22.2-2.2,41.9-10.8,59.8-23.3c18.3-12.2,36.2-25.1,53-39.1c3.9-3.1,7.6-6.2,11.4-9.3c-1.2,9.9-1.5,20-1.7,29.7
			c0,3.9-0.4,7.5,0,11.1c0,2.5,0.7,5,1.4,7.5c3.6,13.6,11.5,23.7,25.4,27.2c12.9,3.6,25.4,1.4,36.2-6.8c3.6-2.9,6.8-6.1,9.7-9.7
			c6.4-9,13.3-17.9,19.7-26.5c2.9-3.8,5.8-7.6,8.8-11.5c0,0.5-0.1,0.9-0.2,1.4c-1.1,12.5,0.4,24.7,5.7,36.2
			c1.8,4.3,4.3,8.2,8.6,11.1c10.8,7.5,22.2,8.2,34.4,4.3c8.6-2.9,15.4-8.6,20.8-15c12.9-15.4,25.4-30.8,38-46.2
			c7.2-8.6,14-17.6,20.8-26.9c1.4-1.8,2.5-3.9,3.2-6.4c1.1-4.3-2.1-7.9-6.8-7.2c-2.5,0.4-5,1.4-7.2,2.9c-2.9,1.8-5,3.9-7.2,6.4
			c-12.5,14-24.7,28-36.6,42.3c-5.7,6.8-11.1,14-17.6,20.1c-2.1,2.1-4.7,4.7-7.9,6.8c-0.4-2.1-0.4-3.6,0-5.4
			c0.4-6.1,0.7-12.5,1.8-19c2.2-15.1,6.1-30.1,10.8-44.8c11.5-38.3,23.7-76.3,36.2-114.3c7.5-22.6,15.8-45.2,25.1-67.7
			c5.7-13.6,11.8-27.2,16.1-41.9c1.4-4.3,2.9-9,3.6-13.6C1172.6,458.4,1169.4,453.4,1161.8,450.5z M629.7,683.1
			c-12.5,19.7-25.1,39.1-38,58.1c-6.1,8.6-12.2,17.2-19.7,24.4c-1.1,1.1-1.8,2.9-3.2,2.1c-1.8-0.4-1.1-2.1-1.4-3.6
			c-1.4-5.4-0.4-10.8,0.4-16.1c1.8-17.9,5-35.5,11.1-52.7c4.7-13.3,10.8-26.2,17.9-38.3c4.3-6.8,9.7-12.9,15.8-18.3
			c0.7-0.7,1.4-1.1,2.1-1.8c8.2-5.4,12.2-4.7,17.6,3.2c2.2,3.2,3.9,6.8,5.7,10.8c2.2,4.3,3.9,8.6,9.7,11.1
			C638.6,667.7,634.3,675.6,629.7,683.1z"/>
		<path d="M416.1,453.8c4.6,3.5,10,6.3,16.2,8.5s12.4,3.4,18.4,3.6c6.1,0.2,9.6-1.4,10.7-4.7L498.8,360c12.1,12.1,25.1,24.1,39.1,36
			c13.9,11.9,27.8,22.8,41.5,32.7c13.8,9.9,27,18.4,39.6,25.6s23.9,12,33.8,14.6c8.1,2.2,16,2.2,23.7,0s14.8-5.8,21.2-10.7
			c6.4-4.9,12.1-10.6,17.1-17.1c4.9-6.4,8.8-12.5,11.5-18.1c2.8-5.7,4.1-10.6,4.1-14.9c0-4.2-1.6-6.5-4.9-6.9
			c-1.8,5.5-5.9,10.1-12.1,13.8c-6.2,3.7-14.1,5.1-23.7,4.4c-9.2-0.7-19.7-3.7-31.6-8.8c-11.9-5.1-24.5-11.7-37.7-19.8
			c-13.2-8.1-26.7-17.2-40.4-27.5c-13.8-10.3-27-20.9-39.9-31.9c16.1,2.6,32.1,0.8,47.9-5.2c15.8-6.1,30.7-14.9,44.8-26.7
			c14.1-11.7,27.2-25.5,39.3-41.3s22.7-31.9,31.9-48.4s16.6-32.7,22.3-48.7s9.1-30,10.2-42.1c1.1-9.9-0.9-21.1-6.1-33.6
			c-5.1-12.5-12.2-24.3-21.2-35.5s-19.3-20.6-31.1-28.3C666.4,13.9,654.4,10,642.3,10c-13.9-0.4-28.9,2-44.8,7.1
			c-16,5.1-31.9,12-47.9,20.6c-15.9,8.6-31.3,18.3-45.9,29.2c-14.7,10.8-27.7,21.8-39.1,33c-11.4,11.2-20.5,22.1-27.5,32.7
			c-7,10.6-10.5,19.8-10.5,27.5c-0.7,12.1,2.8,21.5,10.5,28.1s16.3,11,25.8,13.2s18.6,2.4,27.2,0.5c8.6-1.8,13.8-5.1,15.7-9.9
			c-14.3,2.2-24.1,1.5-29.4-2.2c-5.3-3.7-6.3-9.8-3-18.4c3.3-8.6,10.9-19.3,22.8-31.9c11.9-12.7,28.1-26.7,48.7-42.1l-68.2,172.2
			c-4-5.1-7.7-9.7-11-13.8c-3.3-4-6.1-8.1-8.2-12.1c-3.7,2.2-6.6,5.7-8.8,10.5c-2.2,4.8-3.5,10.1-3.8,16c-0.4,5.9,0.1,11.9,1.4,18.1
			s3.6,11.9,6.9,17.1c1.1,1.5,2.2,2.9,3.3,4.4c1.1,1.5,2.2,2.9,3.3,4.4c-9.9,26.4-19.2,51.1-27.8,74c-8.6,22.9-15.5,41-20.6,54.2
			C409.9,446.5,411.5,450.3,416.1,453.8z M533.5,271.4c4-9.9,8.4-21,13.2-33.3s9.8-25.2,15.1-38.8s10.5-26.5,15.4-38.8
			s9.6-23.6,14-33.8c4.4-10.3,8.2-18.3,11.5-24.2c1.5-3.3,1.4-6.3-0.3-9.1c-1.7-2.8-3.9-5.2-6.6-7.4c-2.8-2.2-5.9-3.9-9.4-5.2
			c-3.5-1.3-6.5-1.9-9.1-1.9c8.1-5.5,17-10.6,26.7-15.4s19.1-8.5,28.1-11.3s17.1-4.3,24.2-4.7c7.1-0.4,12,0.9,14.6,3.8
			c8.4,9.9,12.2,23.7,11.3,41.3s-5,36.3-12.4,56.1c-7.3,19.8-17.1,39.7-29.4,59.7c-12.3,20-25.3,37.3-39.1,52
			c-13.8,14.7-27.5,25.5-41.3,32.5s-25.9,7.5-36.6,1.6C526.2,289,529.5,281.3,533.5,271.4z"/>
		<path d="M709,281.1c-4,11.2-7,22.6-8.8,34.4c-1.8,11.7-1.3,22.6,1.7,32.5c1.8,7.3,6.2,14.1,13.2,20.4c7,6.2,14.9,11.4,23.9,15.4
			s18,6.7,27,8s16.4,0.3,22.3-3c7-3.7,13.3-8.7,19-15.1s10.6-13,14.9-19.8c4.2-6.8,7.8-13.4,10.7-19.8s5.3-11.5,7.1-15.1
			c9.9,3.3,18.5,5.1,25.9,5.5c4.4,0.2,9.1,0.1,13.9-0.2c-0.6,2.9-1.1,5.7-1.6,8.4c-3.1,18.3-4.3,34.3-3.6,47.9
			c0,2.2,0.1,4.4,0.3,6.6s0.5,4.2,0.8,6.1c4.8,19.1,12.8,33,24.2,41.8c11.4,9.2,20.5,13.8,27.5,13.8c3.7,0.4,6.7,0.6,9.1,0.8
			c2.4,0.2,4.3,0.1,5.8-0.3c7,0,13-2.2,18.1-6.6c-16.1-0.4-25.7-6.8-28.6-19.3c-1.1-6.2-1.9-11.6-2.5-16.2c-0.5-4.6-1-8.3-1.4-11.3
			c-0.7-17.2,1.1-37,5.5-59.4c5.5-31.5,14.8-64.2,28-97.9c12.5-33.7,27.7-66.2,45.7-97.4c18.3-30.8,37.2-55,56.7-72.6
			c2.6-2.6,3.7-4.8,3.3-6.6c-0.7-5.9-6.1-11.7-16-17.6l-3.3-1.7c-5.1-4-9.8-6.8-14-8.2c-4.2-1.5-7.8-2.2-10.7-2.2
			c-2.6,0-5.3,0.9-8.2,2.8c-9.5,8.8-19.7,21.2-30.5,37.1s-22.1,35.5-33.8,58.6c-11.7,23.5-22.4,46.8-31.9,70.1s-17.8,46.5-24.7,69.6
			c-3.3,10.4-6.1,20.2-8.6,29.6c-6.5,1-13.1,1.1-19.8,0.1c-7.5-1.1-12.9-2.8-16.2-5c2.9-13.2,5.4-26,7.4-38.5
			c2-12.5,2.1-25.5,0.3-39.1c-1.8-14.7-7.5-26.4-17.1-35.2c-9.5-8.8-20.1-14.9-31.6-18.2c-11.6-3.3-22.6-4.1-33-2.5
			c-10.5,1.6-17.3,5.4-20.6,11.3c-4,7.3-5.9,14.9-5.5,22.8c0.4,7.9,1.3,15.7,2.8,23.4c-1.8,1.8-3.8,3.5-6.1,5
			c-2.2,1.5-4.2,3.1-6.1,4.9c-5.1,4.8-10.5,11.8-16.2,21.2C717.9,259.6,713,269.9,709,281.1z M803.6,193.9c1.5,2.6,2.8,6.7,4.1,12.4
			s2.2,12.1,2.8,19.2c0.5,7.2,0.5,14.3-0.3,21.5c-0.7,7.1-2.2,13.3-4.4,18.4c-6.2-14.7-9.6-28.4-10.2-41.3
			C795.1,211.3,797.7,201.2,803.6,193.9z M746.4,337.2c1.1-10.5,3-20.9,5.8-31.4c2.8-10.4,5.6-19.7,8.5-27.8
			c2.9-8.1,5.3-13,7.1-14.9c7,13.6,16.9,24.8,29.7,33.6c-5.1,12.8-11.1,24.9-17.9,36.3c-6.8,11.4-17.3,21.3-31.6,29.7
			C745.8,356.1,745.3,347.6,746.4,337.2z"/>
		<path d="M1034,167.5c-9.5,10.3-18.6,22.2-27.2,35.8s-16.4,28.1-23.4,43.5s-12.2,30.3-15.7,44.6c-3.5,14.3-4.9,27.6-4.1,39.9
			c0.7,12.3,4.6,22.1,11.6,29.4c3.3,3.3,7.5,6.8,12.7,10.4c5.1,3.7,10.8,6.9,17.1,9.6c6.2,2.8,12.5,4.5,18.7,5.2
			c6.2,0.7,12.1-0.4,17.6-3.3c11.7-6.6,23.7-15,35.8-25.3c12.1-10.3,23.7-21.6,34.7-34.1s20.8-25.8,29.4-39.9s15.3-28.3,20.1-42.6
			c1.5-2.6,1.6-5,0.5-7.4s-2.8-4.3-5-5.8s-4.5-2.4-6.9-2.8c-2.4-0.4-4.3,0.2-5.8,1.6c-7,14.3-16.1,29-27.5,44
			c-11.4,15-22.9,28.5-34.7,40.4c-11.7,11.9-23,21.5-33.8,28.9c-10.8,7.3-19.2,10.5-25,9.4c-4-0.7-6.2-3.9-6.6-9.6s0-12.2,1.1-19.5
			s2.8-14.6,4.9-21.7c2.2-7.2,4.2-12.6,6.1-16.2c6.6,2.9,12.7,4.8,18.2,5.5s11.9,0.2,19.3-1.7c10.3-3.3,19.5-9.8,27.8-19.5
			c8.2-9.7,15.2-20.2,20.9-31.4c5.7-11.2,10.1-21.9,13.2-32.2s4.7-17.4,4.7-21.5c0.7-8.4-3.3-15.4-12.1-20.9
			c-6.2-3.7-11.8-7.1-16.8-10.2c-5-3.1-9.8-5.5-14.6-7.1c-4.8-1.6-9.4-2.4-13.8-2.2s-9.2,1.6-14.3,4.1
			C1052.6,149.7,1043.6,157.2,1034,167.5z M1089,185.6c-0.7,6.2-2.5,13.8-5.2,22.6s-6.4,17.1-11,25s-9.7,14.4-15.4,19.5
			c-5.7,5.1-11.8,7.1-18.4,6.1c0-1.8,1.9-6.2,5.8-13.2c3.8-7,8.4-14.5,13.8-22.6c5.3-8.1,10.8-15.7,16.5-22.8
			C1080.7,193.1,1085.4,188.2,1089,185.6z"/>
	</g>
	<g>
		<path class="st0" d="M487.8,649.1c-2.5-1.4-5.4-2.1-8.2-2.1c-10-1.1-19,1.1-24.7,10.4c-3.9,5.7-7.2,11.8-8.6,18.6
			c-1.1,4.3-1.1,4.3-5.4,3.6c-7.2-0.7-14-1.1-21.1-0.7c-9.3,0.7-18.3,1.8-27.6,3.6c-2.1,0.4-4.3,0.7-6.4,0.7c-0.7-1.4,0-2.5,0.4-3.9
			c10-34.8,19.7-69.5,33.3-103.2c5.7-14.3,11.5-28.7,19.7-41.9c6.4-10.4,13.3-20.4,22.6-28.7c9-7.9,19-13.3,31.5-13.6
			c7.9,0,15.4,0,23.3-0.7c3.9-0.7,7.9-1.4,11.8-2.5c2.1-0.7,3.9-1.4,5.4-2.9c3.6-3.2,3.9-6.8,0.7-10.4c-2.5-2.9-5.7-5-9.3-6.4
			c-3.9-1.4-7.9-2.2-11.8-2.5c-14.3-1.4-28.3,0.4-42.6,2.2c-4.7,0.4-9,1.8-13.6,2.1c-38.3,2.5-77,4.3-115,9.3
			c-10.7,1.4-21.5,2.9-31.9,4.7c-20.1,3.9-39.8,9.3-59.1,16.1c-17.9,6.5-35.1,13.6-51.2,24c-10.8,7.2-20.8,15.4-29,25.4
			c-8.6,10-14.7,21.5-17.9,34.4c-2.5,11.8-2.1,22.9,3.2,34c4.7,9.7,11.8,18.3,20.1,25.1c11.1,9.3,23.7,15.4,37.3,19.4
			c7.9,2.5,15.8,3.9,23.7,2.9c3.2,0,5.7-0.7,8.6-2.5s3.2-4.7,1.1-7.5c-1.1-1.4-2.5-2.1-3.9-2.9c-1.8-1.1-3.9-2.1-6.1-2.9
			c-13.3-5.4-24-14.3-33.3-25.1c-7.9-9.3-10.8-20.4-9-32.6c1.4-10.8,6.1-19.7,12.5-27.9c9.3-11.8,21.1-20.4,34.4-27.2
			c16.8-9,34.8-15.4,53-20.8c29.7-8.6,59.8-13.3,90.7-16.5c5-0.4,10-0.7,14.7-1.4c2.9-0.4,6.1-0.4,9.3-0.7c-0.4,1.4-1.4,2.1-1.8,2.9
			c-5,5-10,10-14.3,15.8c-13.6,17.9-25.1,36.9-34,57.3c-13.3,31.5-23.3,63.8-32.6,96.8c-2.5,9.3-5,19-7.5,28.3
			c-0.7,2.5-2.1,4.3-4.7,5c-2.9,0.7-6.1,2.1-9,3.2c-18.3,6.8-36.2,14.7-52.7,24.7c-20.8,12.9-38.7,28.3-53,48
			c-9.7,13.6-16.5,28.3-18.3,45.2c-1.1,11.8,0.7,22.6,7.2,33c6.4,10,15.8,16.8,26.9,20.8c22.6,7.9,44.4,5.4,64.9-6.4
			c12.2-6.8,22.6-16.5,31.9-26.9c12.2-13.6,21.9-29,29.7-45.9c12.2-26.2,22.9-53,31.9-80.6c1.1-3.6,2.5-5.4,5.7-6.1
			c14.7-3.9,29-7.5,43.7-10c4.7-0.7,9.7-1.1,14.3-1.1c2.5-0.4,2.9,0.4,2.9,2.9c0,0.4,0,1.1,0,1.4c-0.4,5.7-0.7,11.8,0.7,17.6
			c1.8,5.7,5,10.4,10.4,13.3c5.7,2.9,11.8,3.9,18.3,3.2c3.6-0.7,6.8-1.4,9.3-3.9c2.9-2.5,2.9-5.7-0.4-7.5c-2.9-1.8-3.9-4.3-3.9-7.2
			c0-2.2,0-4.3,0.4-6.1c1.1-12.9,4.7-25.4,10.8-36.9c3.2-5.4,5.7-11.1,7.5-17.2C495,655.2,493.5,651.6,487.8,649.1z M305.7,740.5
			c-7.2,20.4-14,41.2-24,60.6c-5.7,10.8-11.8,21.5-19.3,31.2c-7.2,9-15.8,16.1-25.4,22.2c-1.1,0.7-2.5,1.4-3.6,1.8
			c-3.9,1.8-5,1.4-7.2-1.8c-5-6.8-6.4-14.7-5.7-22.9c0.7-15.1,6.8-28.3,16.1-40.1c15.4-19.7,35.1-34.8,57-46.9
			c2.9-1.4,6.1-3.2,9-4.7c1.1-0.7,2.1-1.4,3.2-1.1C306.5,739.4,306.1,739.8,305.7,740.5z"/>
		<path class="st0" d="M689.5,487.5c-7.2-0.7-12.9,2.5-16.5,9c-3.6,6.1-7.2,11.8-10.8,17.6c-5,8.6-10.7,16.1-19,21.9
			c-6.1,4.3-12.2,8.6-18.3,13.3c-3.2,2.5-6.8,4.7-9.7,7.5c-2.9,2.9-2.5,5.4,0,7.9s5.7,3.6,9,4.3c6.4,1.1,12.5,0,18.3-2.5
			c5.7-2.2,11.1-5.4,16.5-8.2c7.9-5,15.4-10.8,23.3-15.4c4.3-2.5,8.2-5.4,11.8-8.6c8.6-7.9,15.4-17.2,16.5-29.4
			c0.7-6.4-1.8-11.5-7.5-14.7C698.9,488.2,694.6,487.1,689.5,487.5z"/>
		<path class="st0" d="M999.5,514c-9,12.2-15.8,25.1-20.4,39.4c-1.8,4.7-2.9,9.7-2.9,15.4c0,2.5,0.7,5.7,1.1,9
			c0.7,3.6,2.9,6.1,6.1,7.5c6.8,3.6,14,4.7,21.5,2.2c3.2-0.7,5.4-2.5,6.8-5c3.9-6.1,7.2-12.2,9.7-18.6c4.7-12.2,9.7-24,15-35.5
			c1.8-4.3,3.6-8.2,4.7-12.5c0.4-2.9-0.4-5-2.1-7.2c-1.4-1.1-2.9-2.2-4.3-2.9C1021.7,498.9,1008.1,502.2,999.5,514z"/>
		<path class="st0" d="M1151.8,440.5c-7.9-2.9-16.1-2.9-24.4-0.4c-3.6,1.1-6.4,3.2-9.3,5.7c-2.5,2.9-4.7,5.7-6.4,8.6
			c-4.3,7.5-8.6,15.4-12.5,23.3c-6.1,12.5-11.8,25.1-16.8,38.3c-5.7,14.7-12.2,29-17.2,44.1c-8.6,24.4-15.4,49.5-22.2,74.2
			c-4.3,14.7-7.2,29.7-11.8,44.4c-1.6,5.6-3.2,11.2-4.6,16.9c-0.8,0.9-1.5,1.9-2.2,2.9c-13.3,17.2-26.2,34.8-39.4,52
			c-4.7,6.4-10.4,12.2-16.5,17.6c-1.1,1.1-2.5,3.2-4.3,2.5c-1.8-1.1-1.1-3.2-1.4-5c-0.7-14.7,2.1-28.7,6.1-42.6
			c3.9-13.3,9.3-26.2,12.9-39.8c1.4-5.7,3.6-11.1,5.4-16.1c4.3-10,8.2-20.1,12.2-30.5c1.8-4.7,3.6-9.3,4.3-14.3
			c1.1-6.8-0.7-11.1-7.2-14c-11.5-5.4-22.9-4.3-33.7,2.2c-2.2,1.4-3.9,3.2-5.7,5.4c-8.2,12.2-15.4,25.1-20.8,38.7
			c-4.1,10.5-7.4,21.6-10.6,32.5c-3,1.4-5.8,3.3-8.4,5.5c-20.8,15.4-41.2,31.2-62,46.6c-9.7,6.8-19.7,12.9-30.5,18.3
			c-9.7,4.7-20.1,7.9-31.2,7.5c-3.9-0.4-6.4-1.8-8.6-5c-2.5-3.9-3.9-8.2-4.7-12.5c-1.8-9.7-0.7-19.3,1.1-29
			c5.4-24.7,16.1-46.9,31.2-67c6.8-9,15.4-16.1,25.1-22.2c3.9-2.5,4.7-2.5,5.7,2.5c2.5,11.5,1.1,22.2-6.5,31.9
			c-1.8,2.1-3.6,3.9-4.7,6.1c-2.2,4.3-1.4,7.9,2.5,10.8c1.4,1.1,2.9,2.1,4.7,2.5c13.6,4.3,26.5,2.5,36.9-7.5s15.8-22.6,15.8-37.3
			c0-7.2-1.8-13.3-5.4-19c-6.4-9.3-15-15.1-25.8-17.9c-11.8-2.9-23.3-2.5-35.1-0.7c-21.1,3.2-39.4,12.2-54.8,26.5
			c-18,16.7-31,36.8-39.2,59.5c-0.2,0.2-0.4,0.5-0.6,0.7c-11.8,15.4-23.7,31.2-35.5,46.6c-6.4,9-13.3,17.9-21.5,25.4
			c-1.4,1.4-2.9,2.9-5,3.9c-1.4,1.1-2.2,0.7-2.5-1.1c-0.4-2.1-0.7-4.3-0.7-6.1c-0.4-13.6,2.5-26.9,6.4-39.8
			c3.2-12.2,8.2-23.3,11.5-35.5c1.4-5,2.5-10,4.7-15.1c3.9-10,7.9-20.1,11.5-30.1c1.8-4.3,3.6-9,5.4-13.6c1.1-2.9,1.8-6.1,1.8-9.7
			c0-3.9-1.4-7.2-5-9.7c-3.2-2.1-6.8-3.6-11.1-3.9c-8.6-1.1-17.2-0.4-24.7,4.7c-3.2,2.2-5.4,5-7.5,8.2c-1.1,1.4-2.2,3.2-3.2,5
			c-1.4,2.1-1.8,2.5-3.6,0.4c-0.7-0.7-1.1-1.4-1.8-2.2c-6.1-7.2-14-11.1-23.3-12.9c-10.8-1.8-21.9-2.1-33-0.7
			c-14,2.5-26.9,7.5-38,16.8c-7.5,6.4-14,14-20.1,21.9c-6.4,8.2-12.2,16.8-16.5,26.5c-8.2,19.4-14.7,39.4-16.1,60.6
			c-0.7,8.2-0.4,16.5,2.1,24.4c4.3,13.3,11.8,24,25.8,28.7c8.2,2.9,16.5,3.2,24.7,2.1c9-1.1,16.8-4.7,23.7-10.4
			c4.3-3.6,8.2-7.9,11.5-12.2c7.2-10,14-19.7,21.1-29.7c3.2-4.7,6.4-9.7,9.7-14.3c0.4,0,0.7,0,0.7,0.4c-0.4,4.3-0.4,9-0.7,13.6
			c-0.7,8.6-0.7,17.6,1.8,25.8c3.9,13.3,12.2,22.2,25.4,25.8c15.1,3.9,28.7,0.4,39.8-10.4c6.1-5.7,10.8-12.9,15.8-19.7
			c6.7-8.9,13.5-17.6,20.2-26.5c0.2,7.5,1.5,15,3.9,22.6c6.1,18.3,17.9,30.1,36.6,34.8c6.8,1.8,14,2.5,20.8,2.2c3.6,0,6.8,0.4,10,0
			c22.2-2.2,41.9-10.8,59.8-23.3c18.3-12.2,36.2-25.1,53-39.1c3.9-3.1,7.6-6.2,11.4-9.3c-1.2,9.9-1.5,20-1.7,29.7
			c0,3.9-0.4,7.5,0,11.1c0,2.5,0.7,5,1.4,7.5c3.6,13.6,11.5,23.7,25.4,27.2c12.9,3.6,25.4,1.4,36.2-6.8c3.6-2.9,6.8-6.1,9.7-9.7
			c6.4-9,13.3-17.9,19.7-26.5c2.9-3.8,5.8-7.6,8.8-11.5c0,0.5-0.1,0.9-0.2,1.4c-1.1,12.5,0.4,24.7,5.7,36.2
			c1.8,4.3,4.3,8.2,8.6,11.1c10.8,7.5,22.2,8.2,34.4,4.3c8.6-2.9,15.4-8.6,20.8-15c12.9-15.4,25.4-30.8,38-46.2
			c7.2-8.6,14-17.6,20.8-26.9c1.4-1.8,2.5-3.9,3.2-6.4c1.1-4.3-2.1-7.9-6.8-7.2c-2.5,0.4-5,1.4-7.2,2.9c-2.9,1.8-5,3.9-7.2,6.4
			c-12.5,14-24.7,28-36.6,42.3c-5.7,6.8-11.1,14-17.6,20.1c-2.1,2.1-4.7,4.7-7.9,6.8c-0.4-2.1-0.4-3.6,0-5.4
			c0.4-6.1,0.7-12.5,1.8-19c2.2-15.1,6.1-30.1,10.8-44.8c11.5-38.3,23.7-76.3,36.2-114.3c7.5-22.6,15.8-45.2,25.1-67.7
			c5.7-13.6,11.8-27.2,16.1-41.9c1.4-4.3,2.9-9,3.6-13.6C1162.6,448.4,1159.4,443.4,1151.8,440.5z M619.7,673.1
			c-12.5,19.7-25.1,39.1-38,58.1c-6.1,8.6-12.2,17.2-19.7,24.4c-1.1,1.1-1.8,2.9-3.2,2.1c-1.8-0.4-1.1-2.1-1.4-3.6
			c-1.4-5.4-0.4-10.8,0.4-16.1c1.8-17.9,5-35.5,11.1-52.7c4.7-13.3,10.8-26.2,17.9-38.3c4.3-6.8,9.7-12.9,15.8-18.3
			c0.7-0.7,1.4-1.1,2.1-1.8c8.2-5.4,12.2-4.7,17.6,3.2c2.2,3.2,3.9,6.8,5.7,10.8c2.2,4.3,3.9,8.6,9.7,11.1
			C628.6,657.7,624.3,665.6,619.7,673.1z"/>
		<path class="st0" d="M406.1,443.8c4.6,3.5,10,6.3,16.2,8.5s12.4,3.4,18.4,3.6c6.1,0.2,9.6-1.4,10.7-4.7L488.8,350
			c12.1,12.1,25.1,24.1,39.1,36c13.9,11.9,27.8,22.8,41.5,32.7c13.8,9.9,27,18.4,39.6,25.6s23.9,12,33.8,14.6c8.1,2.2,16,2.2,23.7,0
			s14.8-5.8,21.2-10.7c6.4-4.9,12.1-10.6,17.1-17.1c4.9-6.4,8.8-12.5,11.5-18.1c2.8-5.7,4.1-10.6,4.1-14.9c0-4.2-1.6-6.5-4.9-6.9
			c-1.8,5.5-5.9,10.1-12.1,13.8c-6.2,3.7-14.1,5.1-23.7,4.4c-9.2-0.7-19.7-3.7-31.6-8.8c-11.9-5.1-24.5-11.7-37.7-19.8
			c-13.2-8.1-26.7-17.2-40.4-27.5c-13.8-10.3-27-20.9-39.9-31.9c16.1,2.6,32.1,0.8,47.9-5.2c15.8-6.1,30.7-14.9,44.8-26.7
			c14.1-11.7,27.2-25.5,39.3-41.3s22.7-31.9,31.9-48.4s16.6-32.7,22.3-48.7s9.1-30,10.2-42.1c1.1-9.9-0.9-21.1-6.1-33.6
			c-5.1-12.5-12.2-24.3-21.2-35.5s-19.3-20.6-31.1-28.3C656.4,3.9,644.4,0,632.3,0c-13.9-0.4-28.9,2-44.8,7.1
			c-16,5.1-31.9,12-47.9,20.6c-15.9,8.6-31.3,18.3-45.9,29.2c-14.7,10.8-27.7,21.8-39.1,33c-11.4,11.2-20.5,22.1-27.5,32.7
			s-10.5,19.8-10.5,27.5c-0.7,12.1,2.8,21.5,10.5,28.1s16.3,11,25.8,13.2s18.6,2.4,27.2,0.5c8.6-1.8,13.8-5.1,15.7-9.9
			c-14.3,2.2-24.1,1.5-29.4-2.2c-5.3-3.7-6.3-9.8-3-18.4c3.3-8.6,10.9-19.3,22.8-31.9c11.9-12.7,28.1-26.7,48.7-42.1l-68.2,172.2
			c-4-5.1-7.7-9.7-11-13.8c-3.3-4-6.1-8.1-8.2-12.1c-3.7,2.2-6.6,5.7-8.8,10.5c-2.2,4.8-3.5,10.1-3.8,16c-0.4,5.9,0.1,11.9,1.4,18.1
			s3.6,11.9,6.9,17.1c1.1,1.5,2.2,2.9,3.3,4.4c1.1,1.5,2.2,2.9,3.3,4.4c-9.9,26.4-19.2,51.1-27.8,74c-8.6,22.9-15.5,41-20.6,54.2
			C399.9,436.5,401.5,440.3,406.1,443.8z M523.5,261.4c4-9.9,8.4-21,13.2-33.3s9.8-25.2,15.1-38.8s10.5-26.5,15.4-38.8
			s9.6-23.6,14-33.8c4.4-10.3,8.2-18.3,11.5-24.2c1.5-3.3,1.4-6.3-0.3-9.1c-1.7-2.8-3.9-5.2-6.6-7.4c-2.8-2.2-5.9-3.9-9.4-5.2
			c-3.5-1.3-6.5-1.9-9.1-1.9c8.1-5.5,17-10.6,26.7-15.4s19.1-8.5,28.1-11.3s17.1-4.3,24.2-4.7c7.1-0.4,12,0.9,14.6,3.8
			c8.4,9.9,12.2,23.7,11.3,41.3s-5,36.3-12.4,56.1c-7.3,19.8-17.1,39.7-29.4,59.7c-12.3,20-25.3,37.3-39.1,52
			c-13.8,14.7-27.5,25.5-41.3,32.5s-25.9,7.5-36.6,1.6C516.2,279,519.5,271.3,523.5,261.4z"/>
		<path class="st0" d="M699,271.1c-4,11.2-7,22.6-8.8,34.4c-1.8,11.7-1.3,22.6,1.7,32.5c1.8,7.3,6.2,14.1,13.2,20.4
			c7,6.2,14.9,11.4,23.9,15.4s18,6.7,27,8s16.4,0.3,22.3-3c7-3.7,13.3-8.7,19-15.1s10.6-13,14.9-19.8c4.2-6.8,7.8-13.4,10.7-19.8
			s5.3-11.5,7.1-15.1c9.9,3.3,18.5,5.1,25.9,5.5c4.4,0.2,9.1,0.1,13.9-0.2c-0.6,2.9-1.1,5.7-1.6,8.4c-3.1,18.3-4.3,34.3-3.6,47.9
			c0,2.2,0.1,4.4,0.3,6.6s0.5,4.2,0.8,6.1c4.8,19.1,12.8,33,24.2,41.8c11.4,9.2,20.5,13.8,27.5,13.8c3.7,0.4,6.7,0.6,9.1,0.8
			c2.4,0.2,4.3,0.1,5.8-0.3c7,0,13-2.2,18.1-6.6c-16.1-0.4-25.7-6.8-28.6-19.3c-1.1-6.2-1.9-11.6-2.5-16.2c-0.5-4.6-1-8.3-1.4-11.3
			c-0.7-17.2,1.1-37,5.5-59.4c5.5-31.5,14.8-64.2,28-97.9c12.5-33.7,27.7-66.2,45.7-97.4c18.3-30.8,37.2-55,56.7-72.6
			c2.6-2.6,3.7-4.8,3.3-6.6c-0.7-5.9-6.1-11.7-16-17.6l-3.3-1.7c-5.1-4-9.8-6.8-14-8.2c-4.2-1.5-7.8-2.2-10.7-2.2
			c-2.6,0-5.3,0.9-8.2,2.8c-9.5,8.8-19.7,21.2-30.5,37.1s-22.1,35.5-33.8,58.6c-11.7,23.5-22.4,46.8-31.9,70.1s-17.8,46.5-24.7,69.6
			c-3.3,10.4-6.1,20.2-8.6,29.6c-6.5,1-13.1,1.1-19.8,0.1c-7.5-1.1-12.9-2.8-16.2-5c2.9-13.2,5.4-26,7.4-38.5
			c2-12.5,2.1-25.5,0.3-39.1c-1.8-14.7-7.5-26.4-17.1-35.2c-9.5-8.8-20.1-14.9-31.6-18.2c-11.6-3.3-22.6-4.1-33-2.5
			c-10.5,1.6-17.3,5.4-20.6,11.3c-4,7.3-5.9,14.9-5.5,22.8c0.4,7.9,1.3,15.7,2.8,23.4c-1.8,1.8-3.8,3.5-6.1,5
			c-2.2,1.5-4.2,3.1-6.1,4.9c-5.1,4.8-10.5,11.8-16.2,21.2C707.9,249.6,703,259.9,699,271.1z M793.6,183.9c1.5,2.6,2.8,6.7,4.1,12.4
			s2.2,12.1,2.8,19.2c0.5,7.2,0.5,14.3-0.3,21.5c-0.7,7.1-2.2,13.3-4.4,18.4c-6.2-14.7-9.6-28.4-10.2-41.3
			C785.1,201.3,787.7,191.2,793.6,183.9z M736.4,327.2c1.1-10.5,3-20.9,5.8-31.4c2.8-10.4,5.6-19.7,8.5-27.8
			c2.9-8.1,5.3-13,7.1-14.9c7,13.6,16.9,24.8,29.7,33.6c-5.1,12.8-11.1,24.9-17.9,36.3c-6.8,11.4-17.3,21.3-31.6,29.7
			C735.8,346.1,735.3,337.6,736.4,327.2z"/>
		<path class="st0" d="M1024,157.5c-9.5,10.3-18.6,22.2-27.2,35.8s-16.4,28.1-23.4,43.5s-12.2,30.3-15.7,44.6
			c-3.5,14.3-4.9,27.6-4.1,39.9c0.7,12.3,4.6,22.1,11.6,29.4c3.3,3.3,7.5,6.8,12.7,10.4c5.1,3.7,10.8,6.9,17.1,9.6
			c6.2,2.8,12.5,4.5,18.7,5.2s12.1-0.4,17.6-3.3c11.7-6.6,23.7-15,35.8-25.3c12.1-10.3,23.7-21.6,34.7-34.1s20.8-25.8,29.4-39.9
			s15.3-28.3,20.1-42.6c1.5-2.6,1.6-5,0.5-7.4s-2.8-4.3-5-5.8s-4.5-2.4-6.9-2.8c-2.4-0.4-4.3,0.2-5.8,1.6c-7,14.3-16.1,29-27.5,44
			c-11.4,15-22.9,28.5-34.7,40.4c-11.7,11.9-23,21.5-33.8,28.9c-10.8,7.3-19.2,10.5-25,9.4c-4-0.7-6.2-3.9-6.6-9.6s0-12.2,1.1-19.5
			s2.8-14.6,4.9-21.7c2.2-7.2,4.2-12.6,6.1-16.2c6.6,2.9,12.7,4.8,18.2,5.5s11.9,0.2,19.3-1.7c10.3-3.3,19.5-9.8,27.8-19.5
			c8.2-9.7,15.2-20.2,20.9-31.4c5.7-11.2,10.1-21.9,13.2-32.2s4.7-17.4,4.7-21.5c0.7-8.4-3.3-15.4-12.1-20.9
			c-6.2-3.7-11.8-7.1-16.8-10.2c-5-3.1-9.8-5.5-14.6-7.1c-4.8-1.6-9.4-2.4-13.8-2.2s-9.2,1.6-14.3,4.1
			C1042.6,139.7,1033.6,147.2,1024,157.5z M1079,175.6c-0.7,6.2-2.5,13.8-5.2,22.6s-6.4,17.1-11,25s-9.7,14.4-15.4,19.5
			c-5.7,5.1-11.8,7.1-18.4,6.1c0-1.8,1.9-6.2,5.8-13.2c3.8-7,8.4-14.5,13.8-22.6c5.3-8.1,10.8-15.7,16.5-22.8
			C1070.7,183.1,1075.4,178.2,1079,175.6z"/>
	</g>
</g>
<g>
	<g>
		<path d="M1126.9,123.5c-0.4,1.6-1.6,3-3.6,4.2c-1.9,1.2-3.9,2.1-6,2.6c-2.3,0.6-4.1,0.9-5.5,0.8c-0.8,0-1.3-0.1-1.7-0.4
			c-0.4-0.3-0.5-0.6-0.2-0.9c0.2-0.8,0.1-2.8-0.5-6.1c-0.4-3.2-1.1-6.5-2.2-10c-0.5-1.9-0.9-3.6-1.4-5.2s-0.9-3-1.4-4.4
			c-1.1-2.6-2.2-4.2-3.1-4.6c-0.9,0-2.7,1.4-5.5,4.1c-2.9,2.7-6.2,6-9.7,10c-1.7,2-3.3,3.9-4.8,5.7c-1.5,1.8-2.9,3.6-4.2,5.5
			c-2.7,3.2-4.3,5.5-4.8,6.9c-0.3,0.9-1.3,1.3-3,1.3c-1.3-0.2-3-0.8-5.3-1.9c-2.1-1.4-3.6-2.8-4.6-4c-0.7-0.7-1.1-1.5-1.3-2.4
			c-0.2-0.9-0.1-1.7,0.1-2.5c0.5-1.9,3-5.2,7.4-9.7c2.1-2.3,4.3-4.6,6.7-6.9c2.4-2.3,4.9-4.8,7.6-7.3c2.8-2.4,5.5-4.7,8-6.7
			s4.9-3.9,7.3-5.7c4.6-3.3,7.7-4.9,9.3-4.8c2,0.8,4.9,4.2,8.7,10.3c3.8,5.8,7.2,12,10.1,18.5
			C1126.2,116.2,1127.4,120.8,1126.9,123.5z"/>
	</g>
	<g>
		<g>
			<path class="st0" d="M1116.9,113.5c-0.4,1.6-1.6,3-3.6,4.2c-1.9,1.2-3.9,2.1-6,2.6c-2.3,0.6-4.1,0.9-5.5,0.8
				c-0.8,0-1.3-0.1-1.7-0.4c-0.4-0.3-0.5-0.6-0.2-0.9c0.2-0.8,0.1-2.8-0.5-6.1c-0.4-3.2-1.1-6.5-2.2-10c-0.5-1.9-0.9-3.6-1.4-5.2
				s-0.9-3-1.4-4.4c-1.1-2.6-2.2-4.2-3.1-4.6c-0.9,0-2.7,1.4-5.5,4.1c-2.9,2.7-6.2,6-9.7,10c-1.7,2-3.3,3.9-4.8,5.7
				c-1.5,1.8-2.9,3.6-4.2,5.5c-2.7,3.2-4.3,5.5-4.8,6.9c-0.3,0.9-1.3,1.3-3,1.3c-1.3-0.2-3-0.8-5.3-1.9c-2.1-1.4-3.6-2.8-4.6-4
				c-0.7-0.7-1.1-1.5-1.3-2.4c-0.2-0.9-0.1-1.7,0.1-2.5c0.5-1.9,3-5.2,7.4-9.7c2.1-2.3,4.3-4.6,6.7-6.9c2.4-2.3,4.9-4.8,7.6-7.3
				c2.8-2.4,5.5-4.7,8-6.7s4.9-3.9,7.3-5.7c4.6-3.3,7.7-4.9,9.3-4.8c2,0.8,4.9,4.2,8.7,10.3c3.8,5.8,7.2,12,10.1,18.5
				C1116.2,106.2,1117.4,110.8,1116.9,113.5z"/>
		</g>
	</g>
</g>
</svg>
